M48
INCH,TZ
T1C0.013
T2C0.025
T3C0.040
T4C0.079
%
G90
G05
T1
X55512Y-41634
X55551Y-40256
X56220Y-41634
X56260Y-40256
T2
X52323Y-45748
X53543Y-42717
X53849Y-44580
X55433Y-42717
X56535Y-42283
X58228Y-42087
X59173Y-43031
X59291Y-45512
T3
X53406Y-43898
X54406Y-43898
X55406Y-43898
X56406Y-43898
X57406Y-43898
X58406Y-43898
T4
X53150Y-41339
X59055Y-41339
T0
M30
