%FSLAX34Y34*%
G04 Gerber Fmt 3.4, Leading zero omitted, Abs format*
G04 (created by PCBNEW (2014-03-19 BZR 4756)-product) date Wed 11 Jun 2014 22:21:39 BST*
%MOIN*%
G01*
G70*
G90*
G04 APERTURE LIST*
%ADD10C,0.005906*%
%ADD11C,0.039370*%
%ADD12R,0.015700X0.023600*%
%ADD13R,0.068000X0.080000*%
%ADD14O,0.068000X0.080000*%
%ADD15R,0.023600X0.015700*%
%ADD16R,0.023622X0.013780*%
%ADD17R,0.098425X0.098425*%
%ADD18C,0.035000*%
%ADD19C,0.010000*%
%ADD20C,0.007087*%
G04 APERTURE END LIST*
G54D10*
G54D11*
X55629Y-57185D03*
X56338Y-57185D03*
X55669Y-58562D03*
X56377Y-58562D03*
G54D12*
X57932Y-59645D03*
X57578Y-59645D03*
G54D13*
X58405Y-60629D03*
G54D14*
X57405Y-60629D03*
X56405Y-60629D03*
X55405Y-60629D03*
X54405Y-60629D03*
X53405Y-60629D03*
G54D15*
X54409Y-57106D03*
X54409Y-57460D03*
X54409Y-58838D03*
X54409Y-58484D03*
G54D16*
X58297Y-58405D03*
X58297Y-58661D03*
X58297Y-58917D03*
X57608Y-58917D03*
X57608Y-58661D03*
X57608Y-58405D03*
G54D17*
X58346Y-57480D03*
X53425Y-57480D03*
G54D18*
X58701Y-58479D03*
G54D19*
X58405Y-60629D02*
X58405Y-60079D01*
X57932Y-59645D02*
X58161Y-59645D01*
X58405Y-59889D02*
X58405Y-60079D01*
X58161Y-59645D02*
X58405Y-59889D01*
X58297Y-58661D02*
X58565Y-58661D01*
X58565Y-58615D02*
X58701Y-58479D01*
X58565Y-58661D02*
X58565Y-58615D01*
X53895Y-60892D02*
X53895Y-60629D01*
X54393Y-61390D02*
X53895Y-60892D01*
X57421Y-61390D02*
X54393Y-61390D01*
X57915Y-60896D02*
X57421Y-61390D01*
X57915Y-60250D02*
X57915Y-60896D01*
X57578Y-59913D02*
X57915Y-60250D01*
X57578Y-59645D02*
X57578Y-59913D01*
X53405Y-60629D02*
X53895Y-60629D01*
X57876Y-59079D02*
X57578Y-59377D01*
X57876Y-58661D02*
X57876Y-59079D01*
X57608Y-58661D02*
X57876Y-58661D01*
X57578Y-59645D02*
X57578Y-59377D01*
X57608Y-58405D02*
X57340Y-58405D01*
X57405Y-60629D02*
X56915Y-60629D01*
X56915Y-60892D02*
X56915Y-60629D01*
X56623Y-61185D02*
X56915Y-60892D01*
X56203Y-61185D02*
X56623Y-61185D01*
X55905Y-60886D02*
X56203Y-61185D01*
X55905Y-59262D02*
X55905Y-60886D01*
X56243Y-58925D02*
X55905Y-59262D01*
X56820Y-58925D02*
X56243Y-58925D01*
X57340Y-58405D02*
X56820Y-58925D01*
X55084Y-57460D02*
X54409Y-57460D01*
X56023Y-58399D02*
X55084Y-57460D01*
X56023Y-58705D02*
X56023Y-58399D01*
X56243Y-58925D02*
X56023Y-58705D01*
X57608Y-58917D02*
X57340Y-58917D01*
X56405Y-60629D02*
X56405Y-60079D01*
X57340Y-59145D02*
X57340Y-58917D01*
X56405Y-60079D02*
X57340Y-59145D01*
X54409Y-58838D02*
X54409Y-59067D01*
X55405Y-60063D02*
X54409Y-59067D01*
X55405Y-60629D02*
X55405Y-60063D01*
X58297Y-58917D02*
X58565Y-58917D01*
X54409Y-58838D02*
X54141Y-58838D01*
X54141Y-56948D02*
X54141Y-58838D01*
X54268Y-56820D02*
X54141Y-56948D01*
X58897Y-56820D02*
X54268Y-56820D01*
X59046Y-56969D02*
X58897Y-56820D01*
X59046Y-58594D02*
X59046Y-56969D01*
X58723Y-58917D02*
X59046Y-58594D01*
X58565Y-58917D02*
X58723Y-58917D01*
X56754Y-58186D02*
X56377Y-58562D01*
X57809Y-58186D02*
X56754Y-58186D01*
X58029Y-58405D02*
X57809Y-58186D01*
X58297Y-58405D02*
X58029Y-58405D01*
X55551Y-57106D02*
X55629Y-57185D01*
X54409Y-57106D02*
X55551Y-57106D01*
X55590Y-58484D02*
X55669Y-58562D01*
X54409Y-58484D02*
X55590Y-58484D01*
G54D10*
G36*
X59204Y-60912D02*
X59159Y-61139D01*
X59038Y-61321D01*
X58856Y-61443D01*
X58851Y-61443D01*
X58851Y-61051D01*
X58851Y-61008D01*
X58851Y-60208D01*
X58835Y-60169D01*
X58805Y-60139D01*
X58766Y-60123D01*
X58724Y-60123D01*
X58561Y-60123D01*
X58561Y-60079D01*
X58561Y-59889D01*
X58551Y-59839D01*
X58549Y-59829D01*
X58549Y-59829D01*
X58516Y-59779D01*
X58272Y-59535D01*
X58221Y-59501D01*
X58161Y-59489D01*
X58110Y-59489D01*
X58101Y-59467D01*
X58071Y-59437D01*
X58032Y-59421D01*
X57990Y-59421D01*
X57833Y-59421D01*
X57794Y-59437D01*
X57773Y-59458D01*
X57770Y-59451D01*
X57733Y-59414D01*
X57684Y-59393D01*
X57626Y-59393D01*
X57592Y-59427D01*
X57592Y-59631D01*
X57600Y-59631D01*
X57600Y-59659D01*
X57592Y-59659D01*
X57592Y-59864D01*
X57626Y-59897D01*
X57684Y-59897D01*
X57733Y-59877D01*
X57770Y-59839D01*
X57773Y-59833D01*
X57794Y-59853D01*
X57833Y-59869D01*
X57875Y-59869D01*
X58032Y-59869D01*
X58071Y-59853D01*
X58101Y-59823D01*
X58106Y-59811D01*
X58249Y-59954D01*
X58249Y-60079D01*
X58249Y-60123D01*
X58044Y-60123D01*
X58005Y-60139D01*
X57975Y-60169D01*
X57959Y-60208D01*
X57959Y-60251D01*
X57959Y-61051D01*
X57975Y-61090D01*
X58005Y-61120D01*
X58044Y-61136D01*
X58086Y-61136D01*
X58766Y-61136D01*
X58805Y-61120D01*
X58835Y-61090D01*
X58851Y-61051D01*
X58851Y-61443D01*
X58629Y-61488D01*
X54851Y-61488D01*
X54851Y-60699D01*
X54851Y-60560D01*
X54817Y-60389D01*
X54721Y-60244D01*
X54576Y-60147D01*
X54405Y-60113D01*
X54234Y-60147D01*
X54089Y-60244D01*
X53993Y-60389D01*
X53959Y-60560D01*
X53959Y-60699D01*
X53993Y-60870D01*
X54089Y-61015D01*
X54234Y-61112D01*
X54405Y-61146D01*
X54576Y-61112D01*
X54721Y-61015D01*
X54817Y-60870D01*
X54851Y-60699D01*
X54851Y-61488D01*
X53879Y-61488D01*
X53879Y-60703D01*
X53879Y-60643D01*
X53879Y-60616D01*
X53879Y-60556D01*
X53838Y-60375D01*
X53730Y-60225D01*
X53574Y-60126D01*
X53493Y-60104D01*
X53419Y-60129D01*
X53419Y-60616D01*
X53879Y-60616D01*
X53879Y-60643D01*
X53419Y-60643D01*
X53419Y-61130D01*
X53493Y-61155D01*
X53574Y-61132D01*
X53730Y-61034D01*
X53838Y-60883D01*
X53879Y-60703D01*
X53879Y-61488D01*
X53391Y-61488D01*
X53391Y-61130D01*
X53391Y-60643D01*
X53391Y-60616D01*
X53391Y-60129D01*
X53317Y-60104D01*
X53236Y-60126D01*
X53080Y-60225D01*
X52972Y-60375D01*
X52931Y-60556D01*
X52931Y-60616D01*
X53391Y-60616D01*
X53391Y-60643D01*
X52931Y-60643D01*
X52931Y-60703D01*
X52972Y-60883D01*
X53080Y-61034D01*
X53236Y-61132D01*
X53317Y-61155D01*
X53391Y-61130D01*
X53391Y-61488D01*
X53142Y-61488D01*
X52915Y-61443D01*
X52733Y-61321D01*
X52612Y-61139D01*
X52566Y-60912D01*
X52566Y-57197D01*
X52612Y-56970D01*
X52733Y-56788D01*
X52915Y-56667D01*
X53142Y-56622D01*
X58629Y-56622D01*
X58841Y-56664D01*
X54268Y-56664D01*
X54208Y-56676D01*
X54158Y-56710D01*
X54030Y-56837D01*
X53996Y-56888D01*
X53992Y-56912D01*
X53977Y-56898D01*
X53938Y-56881D01*
X53896Y-56881D01*
X52911Y-56881D01*
X52872Y-56898D01*
X52842Y-56927D01*
X52826Y-56967D01*
X52826Y-57009D01*
X52826Y-57993D01*
X52842Y-58032D01*
X52872Y-58062D01*
X52911Y-58078D01*
X52954Y-58078D01*
X53938Y-58078D01*
X53977Y-58062D01*
X53985Y-58055D01*
X53985Y-58838D01*
X53996Y-58898D01*
X54030Y-58948D01*
X54081Y-58982D01*
X54141Y-58994D01*
X54218Y-58994D01*
X54231Y-59007D01*
X54253Y-59016D01*
X54253Y-59067D01*
X54265Y-59126D01*
X54298Y-59177D01*
X55249Y-60127D01*
X55249Y-60144D01*
X55234Y-60147D01*
X55089Y-60244D01*
X54993Y-60389D01*
X54959Y-60560D01*
X54959Y-60699D01*
X54993Y-60870D01*
X55089Y-61015D01*
X55234Y-61112D01*
X55405Y-61146D01*
X55576Y-61112D01*
X55721Y-61015D01*
X55764Y-60951D01*
X55794Y-60997D01*
X56093Y-61295D01*
X56143Y-61329D01*
X56203Y-61341D01*
X56623Y-61341D01*
X56623Y-61341D01*
X56683Y-61329D01*
X56733Y-61295D01*
X57025Y-61003D01*
X57025Y-61003D01*
X57053Y-60961D01*
X57089Y-61015D01*
X57234Y-61112D01*
X57405Y-61146D01*
X57576Y-61112D01*
X57721Y-61015D01*
X57817Y-60870D01*
X57851Y-60699D01*
X57851Y-60560D01*
X57817Y-60389D01*
X57721Y-60244D01*
X57576Y-60147D01*
X57565Y-60145D01*
X57565Y-59864D01*
X57565Y-59659D01*
X57565Y-59631D01*
X57565Y-59427D01*
X57531Y-59393D01*
X57473Y-59393D01*
X57424Y-59414D01*
X57386Y-59451D01*
X57366Y-59501D01*
X57366Y-59554D01*
X57366Y-59598D01*
X57400Y-59631D01*
X57565Y-59631D01*
X57565Y-59659D01*
X57400Y-59659D01*
X57366Y-59692D01*
X57366Y-59737D01*
X57366Y-59790D01*
X57386Y-59839D01*
X57424Y-59877D01*
X57473Y-59897D01*
X57531Y-59897D01*
X57565Y-59864D01*
X57565Y-60145D01*
X57405Y-60113D01*
X57234Y-60147D01*
X57089Y-60244D01*
X56993Y-60389D01*
X56976Y-60473D01*
X56915Y-60473D01*
X56855Y-60485D01*
X56839Y-60496D01*
X56817Y-60389D01*
X56721Y-60244D01*
X56576Y-60147D01*
X56561Y-60144D01*
X56561Y-60144D01*
X57450Y-59255D01*
X57450Y-59255D01*
X57484Y-59205D01*
X57496Y-59145D01*
X57496Y-59092D01*
X57511Y-59092D01*
X57747Y-59092D01*
X57786Y-59076D01*
X57816Y-59046D01*
X57832Y-59007D01*
X57832Y-58965D01*
X57832Y-58827D01*
X57828Y-58817D01*
X57839Y-58806D01*
X57860Y-58756D01*
X57860Y-58708D01*
X57826Y-58675D01*
X57622Y-58675D01*
X57622Y-58683D01*
X57594Y-58683D01*
X57594Y-58675D01*
X57389Y-58675D01*
X57356Y-58708D01*
X57356Y-58756D01*
X57357Y-58761D01*
X57340Y-58761D01*
X57280Y-58772D01*
X57229Y-58806D01*
X57195Y-58857D01*
X57183Y-58917D01*
X57183Y-59080D01*
X56294Y-59969D01*
X56261Y-60019D01*
X56249Y-60079D01*
X56249Y-60144D01*
X56234Y-60147D01*
X56089Y-60244D01*
X56061Y-60286D01*
X56061Y-59327D01*
X56308Y-59081D01*
X56820Y-59081D01*
X56820Y-59081D01*
X56880Y-59069D01*
X56931Y-59035D01*
X57356Y-58610D01*
X57356Y-58614D01*
X57389Y-58647D01*
X57594Y-58647D01*
X57594Y-58639D01*
X57622Y-58639D01*
X57622Y-58647D01*
X57826Y-58647D01*
X57860Y-58614D01*
X57860Y-58565D01*
X57839Y-58516D01*
X57828Y-58505D01*
X57832Y-58495D01*
X57832Y-58453D01*
X57832Y-58430D01*
X57918Y-58516D01*
X57918Y-58516D01*
X57969Y-58549D01*
X57969Y-58549D01*
X57979Y-58551D01*
X58029Y-58561D01*
X58076Y-58561D01*
X58072Y-58571D01*
X58072Y-58613D01*
X58072Y-58751D01*
X58088Y-58789D01*
X58072Y-58827D01*
X58072Y-58869D01*
X58072Y-59007D01*
X58089Y-59046D01*
X58118Y-59076D01*
X58157Y-59092D01*
X58200Y-59092D01*
X58436Y-59092D01*
X58475Y-59076D01*
X58478Y-59073D01*
X58565Y-59073D01*
X58723Y-59073D01*
X58723Y-59073D01*
X58783Y-59061D01*
X58834Y-59027D01*
X59157Y-58704D01*
X59157Y-58704D01*
X59190Y-58654D01*
X59190Y-58654D01*
X59192Y-58644D01*
X59202Y-58594D01*
X59202Y-58594D01*
X59202Y-57187D01*
X59204Y-57197D01*
X59204Y-60912D01*
X59204Y-60912D01*
G37*
G54D20*
X59204Y-60912D02*
X59159Y-61139D01*
X59038Y-61321D01*
X58856Y-61443D01*
X58851Y-61443D01*
X58851Y-61051D01*
X58851Y-61008D01*
X58851Y-60208D01*
X58835Y-60169D01*
X58805Y-60139D01*
X58766Y-60123D01*
X58724Y-60123D01*
X58561Y-60123D01*
X58561Y-60079D01*
X58561Y-59889D01*
X58551Y-59839D01*
X58549Y-59829D01*
X58549Y-59829D01*
X58516Y-59779D01*
X58272Y-59535D01*
X58221Y-59501D01*
X58161Y-59489D01*
X58110Y-59489D01*
X58101Y-59467D01*
X58071Y-59437D01*
X58032Y-59421D01*
X57990Y-59421D01*
X57833Y-59421D01*
X57794Y-59437D01*
X57773Y-59458D01*
X57770Y-59451D01*
X57733Y-59414D01*
X57684Y-59393D01*
X57626Y-59393D01*
X57592Y-59427D01*
X57592Y-59631D01*
X57600Y-59631D01*
X57600Y-59659D01*
X57592Y-59659D01*
X57592Y-59864D01*
X57626Y-59897D01*
X57684Y-59897D01*
X57733Y-59877D01*
X57770Y-59839D01*
X57773Y-59833D01*
X57794Y-59853D01*
X57833Y-59869D01*
X57875Y-59869D01*
X58032Y-59869D01*
X58071Y-59853D01*
X58101Y-59823D01*
X58106Y-59811D01*
X58249Y-59954D01*
X58249Y-60079D01*
X58249Y-60123D01*
X58044Y-60123D01*
X58005Y-60139D01*
X57975Y-60169D01*
X57959Y-60208D01*
X57959Y-60251D01*
X57959Y-61051D01*
X57975Y-61090D01*
X58005Y-61120D01*
X58044Y-61136D01*
X58086Y-61136D01*
X58766Y-61136D01*
X58805Y-61120D01*
X58835Y-61090D01*
X58851Y-61051D01*
X58851Y-61443D01*
X58629Y-61488D01*
X54851Y-61488D01*
X54851Y-60699D01*
X54851Y-60560D01*
X54817Y-60389D01*
X54721Y-60244D01*
X54576Y-60147D01*
X54405Y-60113D01*
X54234Y-60147D01*
X54089Y-60244D01*
X53993Y-60389D01*
X53959Y-60560D01*
X53959Y-60699D01*
X53993Y-60870D01*
X54089Y-61015D01*
X54234Y-61112D01*
X54405Y-61146D01*
X54576Y-61112D01*
X54721Y-61015D01*
X54817Y-60870D01*
X54851Y-60699D01*
X54851Y-61488D01*
X53879Y-61488D01*
X53879Y-60703D01*
X53879Y-60643D01*
X53879Y-60616D01*
X53879Y-60556D01*
X53838Y-60375D01*
X53730Y-60225D01*
X53574Y-60126D01*
X53493Y-60104D01*
X53419Y-60129D01*
X53419Y-60616D01*
X53879Y-60616D01*
X53879Y-60643D01*
X53419Y-60643D01*
X53419Y-61130D01*
X53493Y-61155D01*
X53574Y-61132D01*
X53730Y-61034D01*
X53838Y-60883D01*
X53879Y-60703D01*
X53879Y-61488D01*
X53391Y-61488D01*
X53391Y-61130D01*
X53391Y-60643D01*
X53391Y-60616D01*
X53391Y-60129D01*
X53317Y-60104D01*
X53236Y-60126D01*
X53080Y-60225D01*
X52972Y-60375D01*
X52931Y-60556D01*
X52931Y-60616D01*
X53391Y-60616D01*
X53391Y-60643D01*
X52931Y-60643D01*
X52931Y-60703D01*
X52972Y-60883D01*
X53080Y-61034D01*
X53236Y-61132D01*
X53317Y-61155D01*
X53391Y-61130D01*
X53391Y-61488D01*
X53142Y-61488D01*
X52915Y-61443D01*
X52733Y-61321D01*
X52612Y-61139D01*
X52566Y-60912D01*
X52566Y-57197D01*
X52612Y-56970D01*
X52733Y-56788D01*
X52915Y-56667D01*
X53142Y-56622D01*
X58629Y-56622D01*
X58841Y-56664D01*
X54268Y-56664D01*
X54208Y-56676D01*
X54158Y-56710D01*
X54030Y-56837D01*
X53996Y-56888D01*
X53992Y-56912D01*
X53977Y-56898D01*
X53938Y-56881D01*
X53896Y-56881D01*
X52911Y-56881D01*
X52872Y-56898D01*
X52842Y-56927D01*
X52826Y-56967D01*
X52826Y-57009D01*
X52826Y-57993D01*
X52842Y-58032D01*
X52872Y-58062D01*
X52911Y-58078D01*
X52954Y-58078D01*
X53938Y-58078D01*
X53977Y-58062D01*
X53985Y-58055D01*
X53985Y-58838D01*
X53996Y-58898D01*
X54030Y-58948D01*
X54081Y-58982D01*
X54141Y-58994D01*
X54218Y-58994D01*
X54231Y-59007D01*
X54253Y-59016D01*
X54253Y-59067D01*
X54265Y-59126D01*
X54298Y-59177D01*
X55249Y-60127D01*
X55249Y-60144D01*
X55234Y-60147D01*
X55089Y-60244D01*
X54993Y-60389D01*
X54959Y-60560D01*
X54959Y-60699D01*
X54993Y-60870D01*
X55089Y-61015D01*
X55234Y-61112D01*
X55405Y-61146D01*
X55576Y-61112D01*
X55721Y-61015D01*
X55764Y-60951D01*
X55794Y-60997D01*
X56093Y-61295D01*
X56143Y-61329D01*
X56203Y-61341D01*
X56623Y-61341D01*
X56623Y-61341D01*
X56683Y-61329D01*
X56733Y-61295D01*
X57025Y-61003D01*
X57025Y-61003D01*
X57053Y-60961D01*
X57089Y-61015D01*
X57234Y-61112D01*
X57405Y-61146D01*
X57576Y-61112D01*
X57721Y-61015D01*
X57817Y-60870D01*
X57851Y-60699D01*
X57851Y-60560D01*
X57817Y-60389D01*
X57721Y-60244D01*
X57576Y-60147D01*
X57565Y-60145D01*
X57565Y-59864D01*
X57565Y-59659D01*
X57565Y-59631D01*
X57565Y-59427D01*
X57531Y-59393D01*
X57473Y-59393D01*
X57424Y-59414D01*
X57386Y-59451D01*
X57366Y-59501D01*
X57366Y-59554D01*
X57366Y-59598D01*
X57400Y-59631D01*
X57565Y-59631D01*
X57565Y-59659D01*
X57400Y-59659D01*
X57366Y-59692D01*
X57366Y-59737D01*
X57366Y-59790D01*
X57386Y-59839D01*
X57424Y-59877D01*
X57473Y-59897D01*
X57531Y-59897D01*
X57565Y-59864D01*
X57565Y-60145D01*
X57405Y-60113D01*
X57234Y-60147D01*
X57089Y-60244D01*
X56993Y-60389D01*
X56976Y-60473D01*
X56915Y-60473D01*
X56855Y-60485D01*
X56839Y-60496D01*
X56817Y-60389D01*
X56721Y-60244D01*
X56576Y-60147D01*
X56561Y-60144D01*
X56561Y-60144D01*
X57450Y-59255D01*
X57450Y-59255D01*
X57484Y-59205D01*
X57496Y-59145D01*
X57496Y-59092D01*
X57511Y-59092D01*
X57747Y-59092D01*
X57786Y-59076D01*
X57816Y-59046D01*
X57832Y-59007D01*
X57832Y-58965D01*
X57832Y-58827D01*
X57828Y-58817D01*
X57839Y-58806D01*
X57860Y-58756D01*
X57860Y-58708D01*
X57826Y-58675D01*
X57622Y-58675D01*
X57622Y-58683D01*
X57594Y-58683D01*
X57594Y-58675D01*
X57389Y-58675D01*
X57356Y-58708D01*
X57356Y-58756D01*
X57357Y-58761D01*
X57340Y-58761D01*
X57280Y-58772D01*
X57229Y-58806D01*
X57195Y-58857D01*
X57183Y-58917D01*
X57183Y-59080D01*
X56294Y-59969D01*
X56261Y-60019D01*
X56249Y-60079D01*
X56249Y-60144D01*
X56234Y-60147D01*
X56089Y-60244D01*
X56061Y-60286D01*
X56061Y-59327D01*
X56308Y-59081D01*
X56820Y-59081D01*
X56820Y-59081D01*
X56880Y-59069D01*
X56931Y-59035D01*
X57356Y-58610D01*
X57356Y-58614D01*
X57389Y-58647D01*
X57594Y-58647D01*
X57594Y-58639D01*
X57622Y-58639D01*
X57622Y-58647D01*
X57826Y-58647D01*
X57860Y-58614D01*
X57860Y-58565D01*
X57839Y-58516D01*
X57828Y-58505D01*
X57832Y-58495D01*
X57832Y-58453D01*
X57832Y-58430D01*
X57918Y-58516D01*
X57918Y-58516D01*
X57969Y-58549D01*
X57969Y-58549D01*
X57979Y-58551D01*
X58029Y-58561D01*
X58076Y-58561D01*
X58072Y-58571D01*
X58072Y-58613D01*
X58072Y-58751D01*
X58088Y-58789D01*
X58072Y-58827D01*
X58072Y-58869D01*
X58072Y-59007D01*
X58089Y-59046D01*
X58118Y-59076D01*
X58157Y-59092D01*
X58200Y-59092D01*
X58436Y-59092D01*
X58475Y-59076D01*
X58478Y-59073D01*
X58565Y-59073D01*
X58723Y-59073D01*
X58723Y-59073D01*
X58783Y-59061D01*
X58834Y-59027D01*
X59157Y-58704D01*
X59157Y-58704D01*
X59190Y-58654D01*
X59190Y-58654D01*
X59192Y-58644D01*
X59202Y-58594D01*
X59202Y-58594D01*
X59202Y-57187D01*
X59204Y-57197D01*
X59204Y-60912D01*
M02*
