%FSLAX34Y34*%
G04 Gerber Fmt 3.4, Leading zero omitted, Abs format*
G04 (created by PCBNEW (2014-03-19 BZR 4756)-product) date Wed 11 Jun 2014 22:21:39 BST*
%MOIN*%
G01*
G70*
G90*
G04 APERTURE LIST*
%ADD10C,0.005906*%
%ADD11C,0.007874*%
%ADD12C,0.009843*%
%ADD13C,0.010000*%
G04 APERTURE END LIST*
G54D10*
G54D11*
X54483Y-57960D02*
X54168Y-57855D01*
X54483Y-57750D01*
X54483Y-57585D02*
X54483Y-57555D01*
X54468Y-57525D01*
X54453Y-57510D01*
X54423Y-57495D01*
X54363Y-57480D01*
X54288Y-57480D01*
X54228Y-57495D01*
X54198Y-57510D01*
X54183Y-57525D01*
X54168Y-57555D01*
X54168Y-57585D01*
X54183Y-57615D01*
X54198Y-57630D01*
X54228Y-57645D01*
X54288Y-57660D01*
X54363Y-57660D01*
X54423Y-57645D01*
X54453Y-57630D01*
X54468Y-57615D01*
X54483Y-57585D01*
X54198Y-57345D02*
X54183Y-57330D01*
X54168Y-57345D01*
X54183Y-57360D01*
X54198Y-57345D01*
X54168Y-57345D01*
X54453Y-57210D02*
X54468Y-57195D01*
X54483Y-57165D01*
X54483Y-57090D01*
X54468Y-57060D01*
X54453Y-57045D01*
X54423Y-57030D01*
X54393Y-57030D01*
X54348Y-57045D01*
X54168Y-57225D01*
X54168Y-57030D01*
G54D12*
X53622Y-59542D02*
X53640Y-59580D01*
X53640Y-59636D01*
X53622Y-59692D01*
X53584Y-59730D01*
X53547Y-59748D01*
X53472Y-59767D01*
X53415Y-59767D01*
X53340Y-59748D01*
X53303Y-59730D01*
X53265Y-59692D01*
X53247Y-59636D01*
X53247Y-59598D01*
X53265Y-59542D01*
X53284Y-59523D01*
X53415Y-59523D01*
X53415Y-59598D01*
X53247Y-59355D02*
X53640Y-59355D01*
X53247Y-59130D01*
X53640Y-59130D01*
X53247Y-58942D02*
X53640Y-58942D01*
X53640Y-58848D01*
X53622Y-58792D01*
X53584Y-58755D01*
X53547Y-58736D01*
X53472Y-58717D01*
X53415Y-58717D01*
X53340Y-58736D01*
X53303Y-58755D01*
X53265Y-58792D01*
X53247Y-58848D01*
X53247Y-58942D01*
X54437Y-59467D02*
X54418Y-59411D01*
X54400Y-59392D01*
X54362Y-59373D01*
X54306Y-59373D01*
X54268Y-59392D01*
X54250Y-59411D01*
X54231Y-59448D01*
X54231Y-59598D01*
X54625Y-59598D01*
X54625Y-59467D01*
X54606Y-59430D01*
X54587Y-59411D01*
X54550Y-59392D01*
X54512Y-59392D01*
X54475Y-59411D01*
X54456Y-59430D01*
X54437Y-59467D01*
X54437Y-59598D01*
X54381Y-59205D02*
X54381Y-58905D01*
X55421Y-59467D02*
X55403Y-59411D01*
X55384Y-59392D01*
X55346Y-59373D01*
X55290Y-59373D01*
X55253Y-59392D01*
X55234Y-59411D01*
X55215Y-59448D01*
X55215Y-59598D01*
X55609Y-59598D01*
X55609Y-59467D01*
X55590Y-59430D01*
X55571Y-59411D01*
X55534Y-59392D01*
X55496Y-59392D01*
X55459Y-59411D01*
X55440Y-59430D01*
X55421Y-59467D01*
X55421Y-59598D01*
X55365Y-59205D02*
X55365Y-58905D01*
X55215Y-59055D02*
X55515Y-59055D01*
X56312Y-59589D02*
X56312Y-59401D01*
X56199Y-59626D02*
X56593Y-59495D01*
X56199Y-59364D01*
X56349Y-59233D02*
X56349Y-58933D01*
X57296Y-59589D02*
X57296Y-59401D01*
X57184Y-59626D02*
X57577Y-59495D01*
X57184Y-59364D01*
X57334Y-59233D02*
X57334Y-58933D01*
X57184Y-59083D02*
X57484Y-59083D01*
X58562Y-59776D02*
X58168Y-59645D01*
X58562Y-59514D01*
X58205Y-59158D02*
X58187Y-59176D01*
X58168Y-59233D01*
X58168Y-59270D01*
X58187Y-59326D01*
X58224Y-59364D01*
X58262Y-59383D01*
X58337Y-59401D01*
X58393Y-59401D01*
X58468Y-59383D01*
X58505Y-59364D01*
X58543Y-59326D01*
X58562Y-59270D01*
X58562Y-59233D01*
X58543Y-59176D01*
X58524Y-59158D01*
X58205Y-58764D02*
X58187Y-58783D01*
X58168Y-58839D01*
X58168Y-58877D01*
X58187Y-58933D01*
X58224Y-58970D01*
X58262Y-58989D01*
X58337Y-59008D01*
X58393Y-59008D01*
X58468Y-58989D01*
X58505Y-58970D01*
X58543Y-58933D01*
X58562Y-58877D01*
X58562Y-58839D01*
X58543Y-58783D01*
X58524Y-58764D01*
G54D13*
X57905Y-60129D02*
X52905Y-60129D01*
X52905Y-60129D02*
X52905Y-61129D01*
X52905Y-61129D02*
X57905Y-61129D01*
X58905Y-60129D02*
X57905Y-60129D01*
X57905Y-60129D02*
X57905Y-61129D01*
X58905Y-60129D02*
X58905Y-61129D01*
X58905Y-61129D02*
X57905Y-61129D01*
M02*
