%FSLAX34Y34*%
G04 Gerber Fmt 3.4, Leading zero omitted, Abs format*
G04 (created by PCBNEW (2014-03-19 BZR 4756)-product) date Sun 25 May 2014 21:01:17 BST*
%MOIN*%
G01*
G70*
G90*
G04 APERTURE LIST*
%ADD10C,0.005906*%
%ADD11C,0.002461*%
%ADD12C,0.011811*%
%ADD13C,0.003000*%
G04 APERTURE END LIST*
G54D10*
G54D11*
X54242Y-40157D02*
X54376Y-40157D01*
X54280Y-40202D01*
X54376Y-40247D01*
X54242Y-40247D01*
X54242Y-40310D02*
X54331Y-40310D01*
X54376Y-40310D02*
X54369Y-40304D01*
X54363Y-40310D01*
X54369Y-40317D01*
X54376Y-40310D01*
X54363Y-40310D01*
X54248Y-40431D02*
X54242Y-40419D01*
X54242Y-40393D01*
X54248Y-40380D01*
X54255Y-40374D01*
X54267Y-40368D01*
X54306Y-40368D01*
X54318Y-40374D01*
X54325Y-40380D01*
X54331Y-40393D01*
X54331Y-40419D01*
X54325Y-40431D01*
X54242Y-40489D02*
X54331Y-40489D01*
X54306Y-40489D02*
X54318Y-40495D01*
X54325Y-40502D01*
X54331Y-40514D01*
X54331Y-40527D01*
X54242Y-40591D02*
X54248Y-40578D01*
X54255Y-40572D01*
X54267Y-40565D01*
X54306Y-40565D01*
X54318Y-40572D01*
X54325Y-40578D01*
X54331Y-40591D01*
X54331Y-40610D01*
X54325Y-40623D01*
X54318Y-40629D01*
X54306Y-40635D01*
X54267Y-40635D01*
X54255Y-40629D01*
X54248Y-40623D01*
X54242Y-40610D01*
X54242Y-40591D01*
X54363Y-40788D02*
X54369Y-40795D01*
X54376Y-40808D01*
X54376Y-40839D01*
X54369Y-40852D01*
X54363Y-40859D01*
X54350Y-40865D01*
X54337Y-40865D01*
X54318Y-40859D01*
X54242Y-40782D01*
X54242Y-40865D01*
X54331Y-41024D02*
X54197Y-41024D01*
X54325Y-41024D02*
X54331Y-41037D01*
X54331Y-41062D01*
X54325Y-41075D01*
X54318Y-41082D01*
X54306Y-41088D01*
X54267Y-41088D01*
X54255Y-41082D01*
X54248Y-41075D01*
X54242Y-41062D01*
X54242Y-41037D01*
X54248Y-41024D01*
X54242Y-41145D02*
X54376Y-41145D01*
X54242Y-41203D02*
X54312Y-41203D01*
X54325Y-41196D01*
X54331Y-41184D01*
X54331Y-41164D01*
X54325Y-41152D01*
X54318Y-41145D01*
X54242Y-41324D02*
X54312Y-41324D01*
X54325Y-41317D01*
X54331Y-41305D01*
X54331Y-41279D01*
X54325Y-41266D01*
X54248Y-41324D02*
X54242Y-41311D01*
X54242Y-41279D01*
X54248Y-41266D01*
X54261Y-41260D01*
X54274Y-41260D01*
X54286Y-41266D01*
X54293Y-41279D01*
X54293Y-41311D01*
X54299Y-41324D01*
X54248Y-41381D02*
X54242Y-41394D01*
X54242Y-41419D01*
X54248Y-41432D01*
X54261Y-41439D01*
X54267Y-41439D01*
X54280Y-41432D01*
X54286Y-41419D01*
X54286Y-41400D01*
X54293Y-41388D01*
X54306Y-41381D01*
X54312Y-41381D01*
X54325Y-41388D01*
X54331Y-41400D01*
X54331Y-41419D01*
X54325Y-41432D01*
X54248Y-41547D02*
X54242Y-41534D01*
X54242Y-41509D01*
X54248Y-41496D01*
X54261Y-41490D01*
X54312Y-41490D01*
X54325Y-41496D01*
X54331Y-41509D01*
X54331Y-41534D01*
X54325Y-41547D01*
X54312Y-41553D01*
X54299Y-41553D01*
X54286Y-41490D01*
X54248Y-41706D02*
X54242Y-41719D01*
X54242Y-41745D01*
X54248Y-41757D01*
X54261Y-41764D01*
X54267Y-41764D01*
X54280Y-41757D01*
X54286Y-41745D01*
X54286Y-41725D01*
X54293Y-41713D01*
X54306Y-41706D01*
X54312Y-41706D01*
X54325Y-41713D01*
X54331Y-41725D01*
X54331Y-41745D01*
X54325Y-41757D01*
X54331Y-41802D02*
X54331Y-41853D01*
X54376Y-41821D02*
X54261Y-41821D01*
X54248Y-41827D01*
X54242Y-41840D01*
X54242Y-41853D01*
X54248Y-41949D02*
X54242Y-41936D01*
X54242Y-41910D01*
X54248Y-41898D01*
X54261Y-41891D01*
X54312Y-41891D01*
X54325Y-41898D01*
X54331Y-41910D01*
X54331Y-41936D01*
X54325Y-41949D01*
X54312Y-41955D01*
X54299Y-41955D01*
X54286Y-41891D01*
X54331Y-42012D02*
X54197Y-42012D01*
X54325Y-42012D02*
X54331Y-42025D01*
X54331Y-42050D01*
X54325Y-42063D01*
X54318Y-42070D01*
X54306Y-42076D01*
X54267Y-42076D01*
X54255Y-42070D01*
X54248Y-42063D01*
X54242Y-42050D01*
X54242Y-42025D01*
X54248Y-42012D01*
X54331Y-42133D02*
X54197Y-42133D01*
X54325Y-42133D02*
X54331Y-42146D01*
X54331Y-42172D01*
X54325Y-42184D01*
X54318Y-42191D01*
X54306Y-42197D01*
X54267Y-42197D01*
X54255Y-42191D01*
X54248Y-42184D01*
X54242Y-42172D01*
X54242Y-42146D01*
X54248Y-42133D01*
X54248Y-42305D02*
X54242Y-42293D01*
X54242Y-42267D01*
X54248Y-42254D01*
X54261Y-42248D01*
X54312Y-42248D01*
X54325Y-42254D01*
X54331Y-42267D01*
X54331Y-42293D01*
X54325Y-42305D01*
X54312Y-42312D01*
X54299Y-42312D01*
X54286Y-42248D01*
X54242Y-42369D02*
X54331Y-42369D01*
X54306Y-42369D02*
X54318Y-42376D01*
X54325Y-42382D01*
X54331Y-42395D01*
X54331Y-42407D01*
X54242Y-42554D02*
X54331Y-42554D01*
X54318Y-42554D02*
X54325Y-42560D01*
X54331Y-42573D01*
X54331Y-42592D01*
X54325Y-42605D01*
X54312Y-42611D01*
X54242Y-42611D01*
X54312Y-42611D02*
X54325Y-42618D01*
X54331Y-42631D01*
X54331Y-42650D01*
X54325Y-42662D01*
X54312Y-42669D01*
X54242Y-42669D01*
X54242Y-42752D02*
X54248Y-42739D01*
X54255Y-42733D01*
X54267Y-42726D01*
X54306Y-42726D01*
X54318Y-42733D01*
X54325Y-42739D01*
X54331Y-42752D01*
X54331Y-42771D01*
X54325Y-42784D01*
X54318Y-42790D01*
X54306Y-42796D01*
X54267Y-42796D01*
X54255Y-42790D01*
X54248Y-42784D01*
X54242Y-42771D01*
X54242Y-42752D01*
X54331Y-42835D02*
X54331Y-42886D01*
X54376Y-42854D02*
X54261Y-42854D01*
X54248Y-42860D01*
X54242Y-42873D01*
X54242Y-42886D01*
X54242Y-42949D02*
X54248Y-42937D01*
X54255Y-42930D01*
X54267Y-42924D01*
X54306Y-42924D01*
X54318Y-42930D01*
X54325Y-42937D01*
X54331Y-42949D01*
X54331Y-42968D01*
X54325Y-42981D01*
X54318Y-42988D01*
X54306Y-42994D01*
X54267Y-42994D01*
X54255Y-42988D01*
X54248Y-42981D01*
X54242Y-42968D01*
X54242Y-42949D01*
X54242Y-43051D02*
X54331Y-43051D01*
X54306Y-43051D02*
X54318Y-43058D01*
X54325Y-43064D01*
X54331Y-43077D01*
X54331Y-43089D01*
X54255Y-43134D02*
X54248Y-43140D01*
X54242Y-43134D01*
X54248Y-43128D01*
X54255Y-43134D01*
X54242Y-43134D01*
X54164Y-40145D02*
X54164Y-40227D01*
X54113Y-40183D01*
X54113Y-40202D01*
X54106Y-40215D01*
X54100Y-40221D01*
X54087Y-40227D01*
X54055Y-40227D01*
X54043Y-40221D01*
X54036Y-40215D01*
X54030Y-40202D01*
X54030Y-40164D01*
X54036Y-40151D01*
X54043Y-40145D01*
X54119Y-40272D02*
X54030Y-40304D01*
X54119Y-40336D01*
X54164Y-40374D02*
X54164Y-40457D01*
X54113Y-40412D01*
X54113Y-40431D01*
X54106Y-40444D01*
X54100Y-40451D01*
X54087Y-40457D01*
X54055Y-40457D01*
X54043Y-40451D01*
X54036Y-40444D01*
X54030Y-40431D01*
X54030Y-40393D01*
X54036Y-40380D01*
X54043Y-40374D01*
X54094Y-40699D02*
X54100Y-40693D01*
X54106Y-40680D01*
X54106Y-40667D01*
X54100Y-40655D01*
X54094Y-40648D01*
X54081Y-40642D01*
X54068Y-40642D01*
X54055Y-40648D01*
X54049Y-40655D01*
X54043Y-40667D01*
X54043Y-40680D01*
X54049Y-40693D01*
X54055Y-40699D01*
X54106Y-40699D02*
X54055Y-40699D01*
X54049Y-40706D01*
X54049Y-40712D01*
X54055Y-40725D01*
X54068Y-40731D01*
X54100Y-40731D01*
X54119Y-40718D01*
X54132Y-40699D01*
X54138Y-40674D01*
X54132Y-40648D01*
X54119Y-40629D01*
X54100Y-40616D01*
X54074Y-40610D01*
X54049Y-40616D01*
X54030Y-40629D01*
X54017Y-40648D01*
X54011Y-40674D01*
X54017Y-40699D01*
X54030Y-40718D01*
X54151Y-40884D02*
X54157Y-40890D01*
X54164Y-40903D01*
X54164Y-40935D01*
X54157Y-40948D01*
X54151Y-40954D01*
X54138Y-40961D01*
X54125Y-40961D01*
X54106Y-40954D01*
X54030Y-40878D01*
X54030Y-40961D01*
X54164Y-41043D02*
X54164Y-41056D01*
X54157Y-41069D01*
X54151Y-41075D01*
X54138Y-41082D01*
X54113Y-41088D01*
X54081Y-41088D01*
X54055Y-41082D01*
X54043Y-41075D01*
X54036Y-41069D01*
X54030Y-41056D01*
X54030Y-41043D01*
X54036Y-41031D01*
X54043Y-41024D01*
X54055Y-41018D01*
X54081Y-41011D01*
X54113Y-41011D01*
X54138Y-41018D01*
X54151Y-41024D01*
X54157Y-41031D01*
X54164Y-41043D01*
X54030Y-41145D02*
X54119Y-41145D01*
X54106Y-41145D02*
X54113Y-41152D01*
X54119Y-41164D01*
X54119Y-41184D01*
X54113Y-41196D01*
X54100Y-41203D01*
X54030Y-41203D01*
X54100Y-41203D02*
X54113Y-41209D01*
X54119Y-41222D01*
X54119Y-41241D01*
X54113Y-41254D01*
X54100Y-41260D01*
X54030Y-41260D01*
X54068Y-41317D02*
X54068Y-41381D01*
X54030Y-41305D02*
X54164Y-41349D01*
X54030Y-41394D01*
G54D12*
X53641Y-45174D02*
X53669Y-45118D01*
X53669Y-45033D01*
X53641Y-44949D01*
X53585Y-44893D01*
X53529Y-44865D01*
X53416Y-44836D01*
X53332Y-44836D01*
X53219Y-44865D01*
X53163Y-44893D01*
X53107Y-44949D01*
X53079Y-45033D01*
X53079Y-45089D01*
X53107Y-45174D01*
X53135Y-45202D01*
X53332Y-45202D01*
X53332Y-45089D01*
X53079Y-45455D02*
X53669Y-45455D01*
X53079Y-45793D01*
X53669Y-45793D01*
X53079Y-46074D02*
X53669Y-46074D01*
X53669Y-46214D01*
X53641Y-46299D01*
X53585Y-46355D01*
X53529Y-46383D01*
X53416Y-46411D01*
X53332Y-46411D01*
X53219Y-46383D01*
X53163Y-46355D01*
X53107Y-46299D01*
X53079Y-46214D01*
X53079Y-46074D01*
X54451Y-45030D02*
X54423Y-45115D01*
X54395Y-45143D01*
X54339Y-45171D01*
X54254Y-45171D01*
X54198Y-45143D01*
X54170Y-45115D01*
X54142Y-45059D01*
X54142Y-44834D01*
X54732Y-44834D01*
X54732Y-45030D01*
X54704Y-45087D01*
X54676Y-45115D01*
X54620Y-45143D01*
X54564Y-45143D01*
X54507Y-45115D01*
X54479Y-45087D01*
X54451Y-45030D01*
X54451Y-44834D01*
X54367Y-45424D02*
X54367Y-45874D01*
X55475Y-45030D02*
X55447Y-45115D01*
X55419Y-45143D01*
X55362Y-45171D01*
X55278Y-45171D01*
X55222Y-45143D01*
X55194Y-45115D01*
X55165Y-45059D01*
X55165Y-44834D01*
X55756Y-44834D01*
X55756Y-45030D01*
X55728Y-45087D01*
X55700Y-45115D01*
X55643Y-45143D01*
X55587Y-45143D01*
X55531Y-45115D01*
X55503Y-45087D01*
X55475Y-45030D01*
X55475Y-44834D01*
X55390Y-45424D02*
X55390Y-45874D01*
X55165Y-45649D02*
X55615Y-45649D01*
X56318Y-44887D02*
X56318Y-45168D01*
X56150Y-44831D02*
X56740Y-45028D01*
X56150Y-45224D01*
X56375Y-45421D02*
X56375Y-45871D01*
X57342Y-44887D02*
X57342Y-45168D01*
X57173Y-44831D02*
X57764Y-45028D01*
X57173Y-45224D01*
X57398Y-45421D02*
X57398Y-45871D01*
X57173Y-45646D02*
X57623Y-45646D01*
X58630Y-44842D02*
X58039Y-45039D01*
X58630Y-45236D01*
X58096Y-45770D02*
X58068Y-45742D01*
X58039Y-45658D01*
X58039Y-45601D01*
X58068Y-45517D01*
X58124Y-45461D01*
X58180Y-45433D01*
X58293Y-45404D01*
X58377Y-45404D01*
X58489Y-45433D01*
X58546Y-45461D01*
X58602Y-45517D01*
X58630Y-45601D01*
X58630Y-45658D01*
X58602Y-45742D01*
X58574Y-45770D01*
X58096Y-46361D02*
X58068Y-46332D01*
X58039Y-46248D01*
X58039Y-46192D01*
X58068Y-46107D01*
X58124Y-46051D01*
X58180Y-46023D01*
X58293Y-45995D01*
X58377Y-45995D01*
X58489Y-46023D01*
X58546Y-46051D01*
X58602Y-46107D01*
X58630Y-46192D01*
X58630Y-46248D01*
X58602Y-46332D01*
X58574Y-46361D01*
G54D10*
X57086Y-42913D02*
X57086Y-39862D01*
X57086Y-39862D02*
X54724Y-39862D01*
X54724Y-39862D02*
X54724Y-42913D01*
X57086Y-42913D02*
X54724Y-42913D01*
X58190Y-42773D02*
X58958Y-42773D01*
X58958Y-42773D02*
X58958Y-42281D01*
X58958Y-42281D02*
X58190Y-42281D01*
X58190Y-42281D02*
X58190Y-42773D01*
X57234Y-40167D02*
X57234Y-40935D01*
X57234Y-40935D02*
X57726Y-40935D01*
X57726Y-40935D02*
X57726Y-40167D01*
X57726Y-40167D02*
X57234Y-40167D01*
X57726Y-42706D02*
X57726Y-41938D01*
X57726Y-41938D02*
X57234Y-41938D01*
X57234Y-41938D02*
X57234Y-42706D01*
X57234Y-42706D02*
X57726Y-42706D01*
G54D13*
X58554Y-42993D02*
X58549Y-42999D01*
X58531Y-43005D01*
X58520Y-43005D01*
X58503Y-42999D01*
X58491Y-42987D01*
X58486Y-42976D01*
X58480Y-42953D01*
X58480Y-42936D01*
X58486Y-42913D01*
X58491Y-42902D01*
X58503Y-42890D01*
X58520Y-42885D01*
X58531Y-42885D01*
X58549Y-42890D01*
X58554Y-42896D01*
X58669Y-43005D02*
X58600Y-43005D01*
X58634Y-43005D02*
X58634Y-42885D01*
X58623Y-42902D01*
X58611Y-42913D01*
X58600Y-42919D01*
X57967Y-40571D02*
X57910Y-40611D01*
X57967Y-40639D02*
X57847Y-40639D01*
X57847Y-40594D01*
X57853Y-40582D01*
X57859Y-40576D01*
X57870Y-40571D01*
X57887Y-40571D01*
X57899Y-40576D01*
X57904Y-40582D01*
X57910Y-40594D01*
X57910Y-40639D01*
X57967Y-40456D02*
X57967Y-40525D01*
X57967Y-40491D02*
X57847Y-40491D01*
X57864Y-40502D01*
X57876Y-40514D01*
X57881Y-40525D01*
X57957Y-42342D02*
X57900Y-42382D01*
X57957Y-42411D02*
X57837Y-42411D01*
X57837Y-42365D01*
X57843Y-42354D01*
X57849Y-42348D01*
X57860Y-42342D01*
X57877Y-42342D01*
X57889Y-42348D01*
X57894Y-42354D01*
X57900Y-42365D01*
X57900Y-42411D01*
X57849Y-42297D02*
X57843Y-42291D01*
X57837Y-42279D01*
X57837Y-42251D01*
X57843Y-42239D01*
X57849Y-42234D01*
X57860Y-42228D01*
X57872Y-42228D01*
X57889Y-42234D01*
X57957Y-42302D01*
X57957Y-42228D01*
M02*
