%FSLAX34Y34*%
G04 Gerber Fmt 3.4, Leading zero omitted, Abs format*
G04 (created by PCBNEW (2014-03-19 BZR 4756)-product) date Wed 11 Jun 2014 22:21:39 BST*
%MOIN*%
G01*
G70*
G90*
G04 APERTURE LIST*
%ADD10C,0.005906*%
%ADD11C,0.007874*%
%ADD12C,0.039370*%
%ADD13R,0.068000X0.080000*%
%ADD14O,0.068000X0.080000*%
%ADD15R,0.098425X0.098425*%
G04 APERTURE END LIST*
G54D10*
G54D11*
X56989Y-61559D02*
X57169Y-61559D01*
X57079Y-61559D02*
X57079Y-61244D01*
X57109Y-61289D01*
X57139Y-61319D01*
X57169Y-61334D01*
X56794Y-61244D02*
X56764Y-61244D01*
X56734Y-61259D01*
X56719Y-61274D01*
X56704Y-61304D01*
X56689Y-61364D01*
X56689Y-61439D01*
X56704Y-61499D01*
X56719Y-61529D01*
X56734Y-61544D01*
X56764Y-61559D01*
X56794Y-61559D01*
X56824Y-61544D01*
X56839Y-61529D01*
X56854Y-61499D01*
X56869Y-61439D01*
X56869Y-61364D01*
X56854Y-61304D01*
X56839Y-61274D01*
X56824Y-61259D01*
X56794Y-61244D01*
X56599Y-61349D02*
X56479Y-61349D01*
X56554Y-61244D02*
X56554Y-61514D01*
X56539Y-61544D01*
X56509Y-61559D01*
X56479Y-61559D01*
X56329Y-61559D02*
X56359Y-61544D01*
X56374Y-61529D01*
X56389Y-61499D01*
X56389Y-61409D01*
X56374Y-61379D01*
X56359Y-61364D01*
X56329Y-61349D01*
X56284Y-61349D01*
X56254Y-61364D01*
X56239Y-61379D01*
X56224Y-61409D01*
X56224Y-61499D01*
X56239Y-61529D01*
X56254Y-61544D01*
X56284Y-61559D01*
X56329Y-61559D01*
X56119Y-61244D02*
X55909Y-61244D01*
X56044Y-61559D01*
X55789Y-61529D02*
X55774Y-61544D01*
X55789Y-61559D01*
X55804Y-61544D01*
X55789Y-61529D01*
X55789Y-61559D01*
X55504Y-61544D02*
X55534Y-61559D01*
X55594Y-61559D01*
X55624Y-61544D01*
X55639Y-61529D01*
X55654Y-61499D01*
X55654Y-61409D01*
X55639Y-61379D01*
X55624Y-61364D01*
X55594Y-61349D01*
X55534Y-61349D01*
X55504Y-61364D01*
X55324Y-61559D02*
X55354Y-61544D01*
X55369Y-61529D01*
X55384Y-61499D01*
X55384Y-61409D01*
X55369Y-61379D01*
X55354Y-61364D01*
X55324Y-61349D01*
X55279Y-61349D01*
X55249Y-61364D01*
X55234Y-61379D01*
X55219Y-61409D01*
X55219Y-61499D01*
X55234Y-61529D01*
X55249Y-61544D01*
X55279Y-61559D01*
X55324Y-61559D01*
X55084Y-61559D02*
X55084Y-61349D01*
X55084Y-61379D02*
X55069Y-61364D01*
X55039Y-61349D01*
X54994Y-61349D01*
X54964Y-61364D01*
X54949Y-61394D01*
X54949Y-61559D01*
X54949Y-61394D02*
X54934Y-61364D01*
X54904Y-61349D01*
X54859Y-61349D01*
X54829Y-61364D01*
X54814Y-61394D01*
X54814Y-61559D01*
G54D12*
X55629Y-57185D03*
X56338Y-57185D03*
X55669Y-58562D03*
X56377Y-58562D03*
G54D13*
X58405Y-60629D03*
G54D14*
X57405Y-60629D03*
X56405Y-60629D03*
X55405Y-60629D03*
X54405Y-60629D03*
X53405Y-60629D03*
G54D15*
X58346Y-57480D03*
X53425Y-57480D03*
M02*
