%FSLAX34Y34*%
G04 Gerber Fmt 3.4, Leading zero omitted, Abs format*
G04 (created by PCBNEW (2014-03-19 BZR 4756)-product) date Wed 11 Jun 2014 22:21:39 BST*
%MOIN*%
G01*
G70*
G90*
G04 APERTURE LIST*
%ADD10C,0.005906*%
%ADD11C,0.002461*%
%ADD12C,0.003000*%
G04 APERTURE END LIST*
G54D10*
G54D11*
X53567Y-58188D02*
X53732Y-58188D01*
X53614Y-58244D01*
X53732Y-58299D01*
X53567Y-58299D01*
X53567Y-58377D02*
X53677Y-58377D01*
X53732Y-58377D02*
X53724Y-58370D01*
X53716Y-58377D01*
X53724Y-58385D01*
X53732Y-58377D01*
X53716Y-58377D01*
X53575Y-58527D02*
X53567Y-58511D01*
X53567Y-58480D01*
X53575Y-58464D01*
X53582Y-58456D01*
X53598Y-58448D01*
X53645Y-58448D01*
X53661Y-58456D01*
X53669Y-58464D01*
X53677Y-58480D01*
X53677Y-58511D01*
X53669Y-58527D01*
X53567Y-58598D02*
X53677Y-58598D01*
X53645Y-58598D02*
X53661Y-58606D01*
X53669Y-58614D01*
X53677Y-58629D01*
X53677Y-58645D01*
X53567Y-58724D02*
X53575Y-58708D01*
X53582Y-58700D01*
X53598Y-58692D01*
X53645Y-58692D01*
X53661Y-58700D01*
X53669Y-58708D01*
X53677Y-58724D01*
X53677Y-58748D01*
X53669Y-58763D01*
X53661Y-58771D01*
X53645Y-58779D01*
X53598Y-58779D01*
X53582Y-58771D01*
X53575Y-58763D01*
X53567Y-58748D01*
X53567Y-58724D01*
X53716Y-58968D02*
X53724Y-58976D01*
X53732Y-58992D01*
X53732Y-59031D01*
X53724Y-59047D01*
X53716Y-59055D01*
X53700Y-59062D01*
X53685Y-59062D01*
X53661Y-59055D01*
X53567Y-58960D01*
X53567Y-59062D01*
X53677Y-59259D02*
X53512Y-59259D01*
X53669Y-59259D02*
X53677Y-59275D01*
X53677Y-59307D01*
X53669Y-59322D01*
X53661Y-59330D01*
X53645Y-59338D01*
X53598Y-59338D01*
X53582Y-59330D01*
X53575Y-59322D01*
X53567Y-59307D01*
X53567Y-59275D01*
X53575Y-59259D01*
X53567Y-59409D02*
X53732Y-59409D01*
X53567Y-59480D02*
X53653Y-59480D01*
X53669Y-59472D01*
X53677Y-59456D01*
X53677Y-59433D01*
X53669Y-59417D01*
X53661Y-59409D01*
X53567Y-59629D02*
X53653Y-59629D01*
X53669Y-59622D01*
X53677Y-59606D01*
X53677Y-59574D01*
X53669Y-59559D01*
X53575Y-59629D02*
X53567Y-59614D01*
X53567Y-59574D01*
X53575Y-59559D01*
X53590Y-59551D01*
X53606Y-59551D01*
X53622Y-59559D01*
X53630Y-59574D01*
X53630Y-59614D01*
X53637Y-59629D01*
X53575Y-59700D02*
X53567Y-59716D01*
X53567Y-59748D01*
X53575Y-59763D01*
X53590Y-59771D01*
X53598Y-59771D01*
X53614Y-59763D01*
X53622Y-59748D01*
X53622Y-59724D01*
X53630Y-59708D01*
X53645Y-59700D01*
X53653Y-59700D01*
X53669Y-59708D01*
X53677Y-59724D01*
X53677Y-59748D01*
X53669Y-59763D01*
X53575Y-59905D02*
X53567Y-59889D01*
X53567Y-59858D01*
X53575Y-59842D01*
X53590Y-59834D01*
X53653Y-59834D01*
X53669Y-59842D01*
X53677Y-59858D01*
X53677Y-59889D01*
X53669Y-59905D01*
X53653Y-59913D01*
X53637Y-59913D01*
X53622Y-59834D01*
X53318Y-58181D02*
X53311Y-58196D01*
X53311Y-58228D01*
X53318Y-58244D01*
X53334Y-58251D01*
X53342Y-58251D01*
X53358Y-58244D01*
X53366Y-58228D01*
X53366Y-58204D01*
X53374Y-58188D01*
X53389Y-58181D01*
X53397Y-58181D01*
X53413Y-58188D01*
X53421Y-58204D01*
X53421Y-58228D01*
X53413Y-58244D01*
X53421Y-58299D02*
X53421Y-58362D01*
X53476Y-58322D02*
X53334Y-58322D01*
X53318Y-58330D01*
X53311Y-58346D01*
X53311Y-58362D01*
X53318Y-58480D02*
X53311Y-58464D01*
X53311Y-58433D01*
X53318Y-58417D01*
X53334Y-58409D01*
X53397Y-58409D01*
X53413Y-58417D01*
X53421Y-58433D01*
X53421Y-58464D01*
X53413Y-58480D01*
X53397Y-58488D01*
X53381Y-58488D01*
X53366Y-58409D01*
X53421Y-58559D02*
X53255Y-58559D01*
X53413Y-58559D02*
X53421Y-58574D01*
X53421Y-58606D01*
X53413Y-58622D01*
X53405Y-58629D01*
X53389Y-58637D01*
X53342Y-58637D01*
X53326Y-58629D01*
X53318Y-58622D01*
X53311Y-58606D01*
X53311Y-58574D01*
X53318Y-58559D01*
X53421Y-58708D02*
X53255Y-58708D01*
X53413Y-58708D02*
X53421Y-58724D01*
X53421Y-58755D01*
X53413Y-58771D01*
X53405Y-58779D01*
X53389Y-58787D01*
X53342Y-58787D01*
X53326Y-58779D01*
X53318Y-58771D01*
X53311Y-58755D01*
X53311Y-58724D01*
X53318Y-58708D01*
X53318Y-58921D02*
X53311Y-58905D01*
X53311Y-58874D01*
X53318Y-58858D01*
X53334Y-58850D01*
X53397Y-58850D01*
X53413Y-58858D01*
X53421Y-58874D01*
X53421Y-58905D01*
X53413Y-58921D01*
X53397Y-58929D01*
X53381Y-58929D01*
X53366Y-58850D01*
X53311Y-59000D02*
X53421Y-59000D01*
X53389Y-59000D02*
X53405Y-59007D01*
X53413Y-59015D01*
X53421Y-59031D01*
X53421Y-59047D01*
X53311Y-59228D02*
X53421Y-59228D01*
X53405Y-59228D02*
X53413Y-59236D01*
X53421Y-59251D01*
X53421Y-59275D01*
X53413Y-59291D01*
X53397Y-59299D01*
X53311Y-59299D01*
X53397Y-59299D02*
X53413Y-59307D01*
X53421Y-59322D01*
X53421Y-59346D01*
X53413Y-59362D01*
X53397Y-59370D01*
X53311Y-59370D01*
X53311Y-59472D02*
X53318Y-59456D01*
X53326Y-59448D01*
X53342Y-59440D01*
X53389Y-59440D01*
X53405Y-59448D01*
X53413Y-59456D01*
X53421Y-59472D01*
X53421Y-59496D01*
X53413Y-59511D01*
X53405Y-59519D01*
X53389Y-59527D01*
X53342Y-59527D01*
X53326Y-59519D01*
X53318Y-59511D01*
X53311Y-59496D01*
X53311Y-59472D01*
X53421Y-59574D02*
X53421Y-59637D01*
X53476Y-59598D02*
X53334Y-59598D01*
X53318Y-59606D01*
X53311Y-59622D01*
X53311Y-59637D01*
X53311Y-59716D02*
X53318Y-59700D01*
X53326Y-59692D01*
X53342Y-59685D01*
X53389Y-59685D01*
X53405Y-59692D01*
X53413Y-59700D01*
X53421Y-59716D01*
X53421Y-59740D01*
X53413Y-59755D01*
X53405Y-59763D01*
X53389Y-59771D01*
X53342Y-59771D01*
X53326Y-59763D01*
X53318Y-59755D01*
X53311Y-59740D01*
X53311Y-59716D01*
X53311Y-59842D02*
X53421Y-59842D01*
X53389Y-59842D02*
X53405Y-59850D01*
X53413Y-59858D01*
X53421Y-59874D01*
X53421Y-59889D01*
X53326Y-59944D02*
X53318Y-59952D01*
X53311Y-59944D01*
X53318Y-59937D01*
X53326Y-59944D01*
X53311Y-59944D01*
X53220Y-58173D02*
X53220Y-58275D01*
X53157Y-58220D01*
X53157Y-58244D01*
X53149Y-58259D01*
X53141Y-58267D01*
X53125Y-58275D01*
X53086Y-58275D01*
X53070Y-58267D01*
X53062Y-58259D01*
X53054Y-58244D01*
X53054Y-58196D01*
X53062Y-58181D01*
X53070Y-58173D01*
X53165Y-58330D02*
X53054Y-58370D01*
X53165Y-58409D01*
X53220Y-58456D02*
X53220Y-58559D01*
X53157Y-58503D01*
X53157Y-58527D01*
X53149Y-58543D01*
X53141Y-58551D01*
X53125Y-58559D01*
X53086Y-58559D01*
X53070Y-58551D01*
X53062Y-58543D01*
X53054Y-58527D01*
X53054Y-58480D01*
X53062Y-58464D01*
X53070Y-58456D01*
X53133Y-58858D02*
X53141Y-58850D01*
X53149Y-58834D01*
X53149Y-58818D01*
X53141Y-58803D01*
X53133Y-58795D01*
X53117Y-58787D01*
X53102Y-58787D01*
X53086Y-58795D01*
X53078Y-58803D01*
X53070Y-58818D01*
X53070Y-58834D01*
X53078Y-58850D01*
X53086Y-58858D01*
X53149Y-58858D02*
X53086Y-58858D01*
X53078Y-58866D01*
X53078Y-58874D01*
X53086Y-58889D01*
X53102Y-58897D01*
X53141Y-58897D01*
X53165Y-58881D01*
X53180Y-58858D01*
X53188Y-58826D01*
X53180Y-58795D01*
X53165Y-58771D01*
X53141Y-58755D01*
X53110Y-58748D01*
X53078Y-58755D01*
X53054Y-58771D01*
X53039Y-58795D01*
X53031Y-58826D01*
X53039Y-58858D01*
X53054Y-58881D01*
X53204Y-59086D02*
X53212Y-59094D01*
X53220Y-59110D01*
X53220Y-59149D01*
X53212Y-59165D01*
X53204Y-59173D01*
X53188Y-59181D01*
X53173Y-59181D01*
X53149Y-59173D01*
X53054Y-59078D01*
X53054Y-59181D01*
X53220Y-59283D02*
X53220Y-59299D01*
X53212Y-59314D01*
X53204Y-59322D01*
X53188Y-59330D01*
X53157Y-59338D01*
X53117Y-59338D01*
X53086Y-59330D01*
X53070Y-59322D01*
X53062Y-59314D01*
X53054Y-59299D01*
X53054Y-59283D01*
X53062Y-59267D01*
X53070Y-59259D01*
X53086Y-59251D01*
X53117Y-59244D01*
X53157Y-59244D01*
X53188Y-59251D01*
X53204Y-59259D01*
X53212Y-59267D01*
X53220Y-59283D01*
X53054Y-59409D02*
X53165Y-59409D01*
X53149Y-59409D02*
X53157Y-59417D01*
X53165Y-59433D01*
X53165Y-59456D01*
X53157Y-59472D01*
X53141Y-59480D01*
X53054Y-59480D01*
X53141Y-59480D02*
X53157Y-59488D01*
X53165Y-59503D01*
X53165Y-59527D01*
X53157Y-59543D01*
X53141Y-59551D01*
X53054Y-59551D01*
X53102Y-59622D02*
X53102Y-59700D01*
X53054Y-59606D02*
X53220Y-59661D01*
X53054Y-59716D01*
G54D10*
X54803Y-59842D02*
X54803Y-56791D01*
X54803Y-56791D02*
X57165Y-56791D01*
X57165Y-56791D02*
X57165Y-59842D01*
X54803Y-59842D02*
X57165Y-59842D01*
X58139Y-59399D02*
X57372Y-59399D01*
X57372Y-59399D02*
X57372Y-59891D01*
X57372Y-59891D02*
X58139Y-59891D01*
X58139Y-59891D02*
X58139Y-59399D01*
X54163Y-56899D02*
X54163Y-57667D01*
X54163Y-57667D02*
X54655Y-57667D01*
X54655Y-57667D02*
X54655Y-56899D01*
X54655Y-56899D02*
X54163Y-56899D01*
X54655Y-59045D02*
X54655Y-58277D01*
X54655Y-58277D02*
X54163Y-58277D01*
X54163Y-58277D02*
X54163Y-59045D01*
X54163Y-59045D02*
X54655Y-59045D01*
X57865Y-58336D02*
G75*
G03X57865Y-58336I-31J0D01*
G74*
G01*
X58523Y-59094D02*
X57381Y-59094D01*
X57381Y-59094D02*
X57381Y-58228D01*
X57381Y-58228D02*
X58523Y-58228D01*
X58523Y-58228D02*
X58523Y-59094D01*
G54D12*
X58326Y-59688D02*
X58320Y-59694D01*
X58303Y-59699D01*
X58292Y-59699D01*
X58275Y-59694D01*
X58263Y-59682D01*
X58257Y-59671D01*
X58252Y-59648D01*
X58252Y-59631D01*
X58257Y-59608D01*
X58263Y-59597D01*
X58275Y-59585D01*
X58292Y-59579D01*
X58303Y-59579D01*
X58320Y-59585D01*
X58326Y-59591D01*
X58440Y-59699D02*
X58372Y-59699D01*
X58406Y-59699D02*
X58406Y-59579D01*
X58395Y-59597D01*
X58383Y-59608D01*
X58372Y-59614D01*
X54389Y-57928D02*
X54349Y-57871D01*
X54320Y-57928D02*
X54320Y-57808D01*
X54366Y-57808D01*
X54378Y-57814D01*
X54383Y-57819D01*
X54389Y-57831D01*
X54389Y-57848D01*
X54383Y-57859D01*
X54378Y-57865D01*
X54366Y-57871D01*
X54320Y-57871D01*
X54503Y-57928D02*
X54435Y-57928D01*
X54469Y-57928D02*
X54469Y-57808D01*
X54458Y-57825D01*
X54446Y-57836D01*
X54435Y-57842D01*
X54389Y-59306D02*
X54349Y-59249D01*
X54320Y-59306D02*
X54320Y-59186D01*
X54366Y-59186D01*
X54378Y-59191D01*
X54383Y-59197D01*
X54389Y-59209D01*
X54389Y-59226D01*
X54383Y-59237D01*
X54378Y-59243D01*
X54366Y-59249D01*
X54320Y-59249D01*
X54435Y-59197D02*
X54440Y-59191D01*
X54452Y-59186D01*
X54480Y-59186D01*
X54492Y-59191D01*
X54498Y-59197D01*
X54503Y-59209D01*
X54503Y-59220D01*
X54498Y-59237D01*
X54429Y-59306D01*
X54503Y-59306D01*
X58610Y-58792D02*
X58610Y-59035D01*
X58624Y-59063D01*
X58638Y-59078D01*
X58667Y-59092D01*
X58724Y-59092D01*
X58752Y-59078D01*
X58767Y-59063D01*
X58781Y-59035D01*
X58781Y-58792D01*
X59081Y-59092D02*
X58910Y-59092D01*
X58995Y-59092D02*
X58995Y-58792D01*
X58967Y-58835D01*
X58938Y-58863D01*
X58910Y-58878D01*
M02*
